<?xml version="1.0" encoding="UTF-8" standalone="no"?>
<!-- Created with Inkscape (http://www.inkscape.org/) -->

<svg
   xmlns:dc="http://purl.org/dc/elements/1.1/"
   xmlns:cc="http://creativecommons.org/ns#"
   xmlns:rdf="http://www.w3.org/1999/02/22-rdf-syntax-ns#"
   xmlns:svg="http://www.w3.org/2000/svg"
   xmlns="http://www.w3.org/2000/svg"
   xmlns:sodipodi="http://sodipodi.sourceforge.net/DTD/sodipodi-0.dtd"
   xmlns:inkscape="http://www.inkscape.org/namespaces/inkscape"
   width="1000"
   height="1000"
   id="svg4218"
   version="1.1"
   inkscape:version="0.48.5 r10040"
   sodipodi:docname="New document 5">
  <defs
     id="defs4220" />
  <sodipodi:namedview
     id="base"
     pagecolor="#ffffff"
     bordercolor="#666666"
     borderopacity="1.0"
     inkscape:pageopacity="0.0"
     inkscape:pageshadow="2"
     inkscape:zoom="0.40700072"
     inkscape:cx="753.9216"
     inkscape:cy="482.77329"
     inkscape:document-units="px"
     inkscape:current-layer="layer1"
     showgrid="false"
     fit-margin-left="0.5"
     fit-margin-bottom="0.5"
     fit-margin-top="0.5"
     fit-margin-right="0.5"
     inkscape:window-width="1054"
     inkscape:window-height="1039"
     inkscape:window-x="859"
     inkscape:window-y="-21"
     inkscape:window-maximized="0" />
  <metadata
     id="metadata4223">
    <rdf:RDF>
      <cc:Work
         rdf:about="">
        <dc:format>image/svg+xml</dc:format>
        <dc:type
           rdf:resource="http://purl.org/dc/dcmitype/StillImage" />
        <dc:title></dc:title>
      </cc:Work>
    </rdf:RDF>
  </metadata>
  <g
     inkscape:label="Layer 1"
     inkscape:groupmode="layer"
     id="layer1"
     transform="translate(151.42858,164.78851)">
    <g
       transform="matrix(15.652174,0,0,-15.652419,348.5636,828.36281)"
       id="g3178">
      <path
         inkscape:connector-curvature="0"
         id="path3180"
         style="fill:#502e8c;fill-opacity:1;fill-rule:nonzero;stroke:none"
         d="m 0,0 c -17.4,0 -31.507,14.105 -31.507,31.504 0,17.401 14.107,31.509 31.507,31.509 17.4,0 31.506,-14.108 31.506,-31.509 C 31.506,14.105 17.4,0 0,0" />
    </g>
    <g
       transform="matrix(15.652174,0,0,-15.652419,348.5636,-151.5944)"
       id="g3182">
      <path
         inkscape:connector-curvature="0"
         id="path3184"
         style="fill:#ffffff;fill-opacity:1;fill-rule:nonzero;stroke:none"
         d="m 0,0 c -17.149,0 -31.1,-13.953 -31.1,-31.103 0,-17.148 13.951,-31.098 31.1,-31.098 17.15,0 31.101,13.95 31.101,31.098 C 31.101,-13.953 17.15,0 0,0 m 0,-63.013 c -17.597,0 -31.912,14.315 -31.912,31.91 0,17.598 14.315,31.914 31.912,31.914 17.598,0 31.913,-14.316 31.913,-31.914 0,-17.595 -14.315,-31.91 -31.913,-31.91" />
    </g>
    <g
       transform="matrix(15.652174,0,0,-15.652419,348.54952,655.24391)"
       id="g3186">
      <path
         inkscape:connector-curvature="0"
         id="path3188"
         style="fill:#067444;fill-opacity:1;fill-rule:nonzero;stroke:none"
         d="m 0,0 c -11.273,0 -20.446,9.172 -20.446,20.446 0,11.274 9.173,20.447 20.446,20.447 11.275,0 20.45,-9.173 20.45,-20.447 C 20.45,9.172 11.275,0 0,0" />
    </g>
    <g
       transform="matrix(15.652174,0,0,-15.652419,348.54952,8.822481)"
       id="g3190">
      <path
         inkscape:connector-curvature="0"
         id="path3192"
         style="fill:#ffffff;fill-opacity:1;fill-rule:nonzero;stroke:none"
         d="m 0,0 c -11.515,0 -20.852,-9.337 -20.852,-20.853 0,-11.515 9.337,-20.852 20.852,-20.852 11.518,0 20.855,9.337 20.855,20.852 C 20.855,-9.337 11.518,0 0,0 m 0,-0.812 c 11.053,0 20.042,-8.99 20.042,-20.041 0,-11.049 -8.989,-20.041 -20.042,-20.041 -11.05,0 -20.041,8.992 -20.041,20.041 0,11.051 8.991,20.041 20.041,20.041" />
    </g>
    <g
       transform="matrix(15.652174,0,0,-15.652419,63.711252,575.97537)"
       id="g3194">
      <path
         inkscape:connector-curvature="0"
         id="path3196"
         style="fill:#ffffff;fill-opacity:1;fill-rule:nonzero;stroke:none"
         d="M 0,0 0.697,-0.804 -0.656,-3.49 1.941,-2.041 2.537,-2.583 1.398,-5.309 3.874,-3.682 4.713,-4.276 0.765,-6.63 0.121,-6.098 1.22,-3.43 -1.314,-4.799 -1.908,-4.222 0,0 z" />
    </g>
    <g
       transform="matrix(15.652174,0,0,-15.652419,150.36169,651.16648)"
       id="g3198">
      <path
         inkscape:connector-curvature="0"
         id="path3200"
         style="fill:#ffffff;fill-opacity:1;fill-rule:nonzero;stroke:none"
         d="M 0,0 0.804,-0.48 -1.375,-4.137 -2.178,-3.657 0,0 z" />
    </g>
    <g
       transform="matrix(15.652174,0,0,-15.652419,181.01178,668.60953)"
       id="g3202">
      <path
         inkscape:connector-curvature="0"
         id="path3204"
         style="fill:#ffffff;fill-opacity:1;fill-rule:nonzero;stroke:none"
         d="M 0,0 0.922,-0.436 1.315,-2.514 2.906,-1.22 3.857,-1.539 2.406,-5.53 1.529,-5.247 2.476,-2.637 0.709,-3.882 0.688,-3.873 0.249,-1.778 -0.83,-4.301 -1.672,-3.919 0,0 z" />
    </g>
    <g
       transform="matrix(15.652174,0,0,-15.652419,282.44413,729.86371)"
       id="g3206">
      <path
         inkscape:connector-curvature="0"
         id="path3208"
         style="fill:#ffffff;fill-opacity:1;fill-rule:nonzero;stroke:none"
         d="M 0,0 C 0.395,-0.068 0.687,0.036 0.733,0.348 L 0.735,0.359 C 0.775,0.638 0.6,0.82 0.192,0.891 -0.215,0.962 -0.54,1.025 -0.66,1.051 -0.687,0.934 -0.811,0.257 -0.835,0.167 -0.577,0.097 -0.395,0.068 0,0 m -0.002,-1.735 c 0.411,-0.056 0.677,0.051 0.724,0.364 l 0.002,0.011 c 0.042,0.282 -0.161,0.491 -0.612,0.56 -0.348,0.056 -0.767,0.13 -1.091,0.2 -0.028,-0.138 -0.157,-0.805 -0.181,-0.909 0.272,-0.062 0.63,-0.132 1.158,-0.226 M -1.384,2.033 C -0.632,1.868 0.018,1.755 0.446,1.677 0.928,1.606 1.288,1.418 1.494,1.14 1.658,0.921 1.721,0.671 1.678,0.381 L 1.677,0.371 C 1.607,-0.103 1.337,-0.377 0.99,-0.459 1.45,-0.714 1.71,-1.043 1.629,-1.605 L 1.626,-1.619 c -0.111,-0.77 -0.791,-1.074 -1.745,-0.928 -0.679,0.117 -1.362,0.252 -2.089,0.416 l 0.824,4.164 z" />
    </g>
    <g
       transform="matrix(15.652174,0,0,-15.652419,331.46517,708.03483)"
       id="g3210">
      <path
         inkscape:connector-curvature="0"
         id="path3212"
         style="fill:#ffffff;fill-opacity:1;fill-rule:nonzero;stroke:none"
         d="m 0,0 0.937,-0.015 c 0,0 -0.048,-3.261 -0.053,-3.405 0.507,-0.003 1.409,0.024 2.076,0.071 C 2.974,-3.616 3.018,-4.2 3.018,-4.2 2.011,-4.273 0.832,-4.284 -0.066,-4.258 L 0,0 z" />
    </g>
    <g
       transform="matrix(15.652174,0,0,-15.652419,389.92604,706.04541)"
       id="g3214">
      <path
         inkscape:connector-curvature="0"
         id="path3216"
         style="fill:#ffffff;fill-opacity:1;fill-rule:nonzero;stroke:none"
         d="m 0,0 c 1.012,0.125 1.934,0.285 3.032,0.536 0,0 0.148,-0.687 0.175,-0.814 -0.471,-0.12 -1.549,-0.344 -2.162,-0.426 l 0.129,-0.855 c 0.594,0.088 1.258,0.212 1.949,0.38 L 3.298,-1.994 C 2.765,-2.13 1.938,-2.276 1.301,-2.383 l 0.134,-0.884 c 0.791,0.125 1.508,0.271 2.349,0.469 L 3.959,-3.612 C 2.858,-3.874 1.787,-4.049 0.64,-4.208 L 0,0 z" />
    </g>
    <g
       transform="matrix(15.652174,0,0,-15.652419,501.0236,733.52011)"
       id="g3218">
      <path
         inkscape:connector-curvature="0"
         id="path3220"
         style="fill:#ffffff;fill-opacity:1;fill-rule:nonzero;stroke:none"
         d="M 0,0 C 0.681,0.289 1.009,0.948 0.736,1.652 L 0.731,1.664 c -0.272,0.703 -0.945,1.009 -1.66,0.733 0,0 -0.425,-0.17 -0.63,-0.235 0.051,-0.141 0.863,-2.429 0.863,-2.429 0,0 0.364,0.127 0.696,0.267 m -2.74,2.647 1.504,0.537 C 0.012,3.67 1.207,3.146 1.641,2.029 L 1.645,2.017 C 2.079,0.902 1.554,-0.304 0.306,-0.786 -0.402,-1.062 -0.859,-1.212 -1.319,-1.348 L -2.74,2.647 z" />
    </g>
    <g
       transform="matrix(15.652174,0,0,-15.652419,587.63178,664.64946)"
       id="g3222">
      <path
         inkscape:connector-curvature="0"
         id="path3224"
         style="fill:#ffffff;fill-opacity:1;fill-rule:nonzero;stroke:none"
         d="M 0,0 -0.007,0.009 C -0.404,0.622 -1.183,0.843 -1.816,0.433 -2.45,0.024 -2.565,-0.762 -2.168,-1.376 l 0.006,-0.009 c 0.397,-0.614 1.176,-0.833 1.81,-0.423 C 0.281,-1.398 0.396,-0.614 0,0 m -2.978,-1.93 -0.006,0.013 C -3.642,-0.901 -3.38,0.45 -2.276,1.165 -1.174,1.878 0.151,1.568 0.809,0.553 L 0.815,0.542 C 1.473,-0.476 1.21,-1.826 0.107,-2.541 -0.995,-3.254 -2.319,-2.944 -2.978,-1.93" />
    </g>
    <g
       transform="matrix(15.652174,0,0,-15.652419,591.3476,618.39813)"
       id="g3226">
      <path
         inkscape:connector-curvature="0"
         id="path3228"
         style="fill:#ffffff;fill-opacity:1;fill-rule:nonzero;stroke:none"
         d="M 0,0 0.645,0.577 3.879,0.108 1.986,1.912 2.591,2.598 5.684,-0.326 5.156,-0.924 1.757,-0.504 3.624,-2.464 2.935,-3.082 0,0 z" />
    </g>
    <g
       transform="matrix(15.652174,0,0,-15.652419,-73.671011,279.22747)"
       id="g3230">
      <path
         inkscape:connector-curvature="0"
         id="path3232"
         style="fill:#ffffff;fill-opacity:1;fill-rule:nonzero;stroke:none"
         d="m 0,0 c -0.059,-0.354 -0.113,-0.809 -0.147,-1.265 l -0.851,0.089 c 0.099,1.192 0.273,2.397 0.512,3.521 L 0.366,2.191 C 0.284,1.799 0.165,1.211 0.134,0.927 0.286,0.904 3.486,0.444 3.486,0.444 L 3.352,-0.482 c 0,0 -3.073,0.443 -3.352,0.482" />
    </g>
    <g
       transform="matrix(15.652174,0,0,-15.652419,-42.135008,133.49868)"
       id="g3234">
      <path
         inkscape:connector-curvature="0"
         id="path3236"
         style="fill:#ffffff;fill-opacity:1;fill-rule:nonzero;stroke:none"
         d="M 0,0 C 0.379,0.725 1.109,1.953 1.671,2.827 L 2.386,2.401 C 1.943,1.735 1.478,0.989 1.179,0.409 l 0.755,-0.42 C 2.211,0.484 2.572,1.072 2.987,1.732 L 3.702,1.303 C 3.337,0.739 2.938,0.11 2.662,-0.416 L 3.444,-0.849 C 3.67,-0.411 4.246,0.516 4.631,1.085 L 5.347,0.657 C 4.843,-0.057 4.125,-1.262 3.72,-2.067 L 0,0 z" />
    </g>
    <g
       transform="matrix(15.652174,0,0,-15.652419,41.413172,68.362664)"
       id="g3238">
      <path
         inkscape:connector-curvature="0"
         id="path3240"
         style="fill:#ffffff;fill-opacity:1;fill-rule:nonzero;stroke:none"
         d="M 0,0 -0.009,0.009 C -0.868,0.859 -0.93,2.206 -0.01,3.134 0.555,3.704 1.083,3.858 1.637,3.865 L 1.706,2.957 C 1.263,2.933 0.898,2.825 0.599,2.522 0.094,2.011 0.154,1.226 0.673,0.712 L 0.681,0.704 C 1.2,0.191 1.986,0.12 2.499,0.639 2.842,0.984 2.913,1.334 2.933,1.785 l 0.846,0 C 3.804,1.144 3.669,0.593 3.091,0.01 2.21,-0.88 0.868,-0.86 0,0" />
    </g>
    <g
       transform="matrix(15.652174,0,0,-15.652419,208.03213,-39.786151)"
       id="g3242">
      <path
         inkscape:connector-curvature="0"
         id="path3244"
         style="fill:#ffffff;fill-opacity:1;fill-rule:nonzero;stroke:none"
         d="M 0,0 -1.043,1.067 -1.049,-0.425 0,0 z m -1.855,1.953 0.8,0.325 L 2.294,-1.073 1.34,-1.38 0.621,-0.64 -1.041,-1.345 -1.045,-2.33 -1.927,-2.758 -1.855,1.953 z" />
    </g>
    <g
       transform="matrix(15.652174,0,0,-15.652419,244.53769,-91.910215)"
       id="g3246">
      <path
         inkscape:connector-curvature="0"
         id="path3248"
         style="fill:#ffffff;fill-opacity:1;fill-rule:nonzero;stroke:none"
         d="M 0,0 0.992,0.225 2.508,-1.369 3.45,0.62 4.46,0.705 4.986,-3.518 4.056,-3.596 3.712,-0.837 2.745,-2.844 2.721,-2.849 1.192,-1.258 1.721,-3.957 0.824,-4.175 0,0 z" />
    </g>
    <g
       transform="matrix(15.652174,0,0,-15.652419,369.21195,-70.386628)"
       id="g3250">
      <path
         inkscape:connector-curvature="0"
         id="path3252"
         style="fill:#ffffff;fill-opacity:1;fill-rule:nonzero;stroke:none"
         d="M 0,0 C 0.467,-0.01 0.752,0.237 0.769,0.601 L 0.77,0.613 C 0.788,1.033 0.525,1.293 0.058,1.314 L -0.689,1.334 -0.741,0.023 0,0 z M -1.616,2.165 -0.699,2.158 0.157,2.132 C 1.258,2.081 1.756,1.421 1.72,0.589 l 0,-0.012 C 1.673,-0.407 0.886,-0.852 -0.067,-0.832 l -0.697,0.022 -0.039,-1.278 -0.941,-10e-4 0.128,4.254 z" />
    </g>
    <g
       transform="matrix(15.652174,0,0,-15.652419,732.56622,202.41001)"
       id="g3254">
      <path
         inkscape:connector-curvature="0"
         id="path3256"
         style="fill:#ffffff;fill-opacity:1;fill-rule:nonzero;stroke:none"
         d="m 0,0 c 0.166,-0.437 0.501,-0.609 0.845,-0.488 l 0.012,0.004 c 0.394,0.14 0.536,0.482 0.382,0.924 L 0.976,1.139 -0.257,0.697 0,0 z M 1.4,2.309 1.738,1.456 2.035,0.653 C 2.401,-0.387 1.975,-1.095 1.188,-1.372 L 1.177,-1.376 c -0.929,-0.328 -1.638,0.237 -1.975,1.128 L -1.039,0.407 -2.238,-0.035 -2.59,0.836 1.4,2.309 z" />
    </g>
    <g
       transform="matrix(15.652174,0,0,-15.652419,421.85804,-98.265065)"
       id="g3258">
      <path
         inkscape:connector-curvature="0"
         id="path3260"
         style="fill:#ffffff;fill-opacity:1;fill-rule:nonzero;stroke:none"
         d="M 0,0 0.92,-0.173 0.137,-4.356 -0.783,-4.183 0,0 z" />
    </g>
    <g
       transform="matrix(15.652174,0,0,-15.652419,502.16152,-41.388926)"
       id="g3262">
      <path
         inkscape:connector-curvature="0"
         id="path3264"
         style="fill:#ffffff;fill-opacity:1;fill-rule:nonzero;stroke:none"
         d="M 0,0 0.004,0.011 C 0.249,0.698 -0.052,1.451 -0.762,1.703 -1.474,1.957 -2.164,1.569 -2.409,0.881 L -2.412,0.871 C -2.657,0.184 -2.357,-0.569 -1.646,-0.82 -0.937,-1.074 -0.243,-0.688 0,0 m -3.34,1.188 0.005,0.011 C -2.93,2.338 -1.699,2.953 -0.461,2.513 0.776,2.074 1.335,0.836 0.93,-0.305 L 0.927,-0.316 C 0.521,-1.456 -0.71,-2.07 -1.947,-1.63 -3.185,-1.19 -3.745,0.047 -3.34,1.188" />
    </g>
    <g
       transform="matrix(15.652174,0,0,-15.652419,550.86325,-55.167773)"
       id="g3266">
      <path
         inkscape:connector-curvature="0"
         id="path3268"
         style="fill:#ffffff;fill-opacity:1;fill-rule:nonzero;stroke:none"
         d="M 0,0 0.757,-0.411 1.133,-3.708 2.558,-1.509 3.325,-2.03 1.01,-5.602 0.351,-5.149 0.036,-1.785 -1.313,-4.129 -2.122,-3.687 0,0 z" />
    </g>
    <g
       transform="matrix(15.652174,0,0,-15.652419,588.56778,37.366178)"
       id="g3270">
      <path
         inkscape:connector-curvature="0"
         id="path3272"
         style="fill:#ffffff;fill-opacity:1;fill-rule:nonzero;stroke:none"
         d="m 0,0 0.852,0.142 c 0.084,-0.49 0.258,-0.905 0.627,-1.223 0.289,-0.25 0.565,-0.285 0.727,-0.096 l 0.007,0.009 C 2.37,-0.989 2.339,-0.801 1.918,-0.199 1.412,0.528 1.147,1.07 1.698,1.711 l 0.008,0.008 c 0.505,0.586 1.308,0.568 1.967,0 C 4.144,1.315 4.418,0.821 4.519,0.277 L 3.69,0.059 C 3.574,0.504 3.397,0.866 3.125,1.1 2.852,1.335 2.601,1.333 2.468,1.176 L 2.46,1.167 C 2.278,0.955 2.354,0.766 2.79,0.143 3.297,-0.591 3.464,-1.144 2.98,-1.707 L 2.972,-1.716 C 2.42,-2.357 1.621,-2.295 0.924,-1.696 0.436,-1.274 0.09,-0.679 0,0" />
    </g>
    <g
       transform="matrix(15.652174,0,0,-15.652419,685.30604,52.553797)"
       id="g3274">
      <path
         inkscape:connector-curvature="0"
         id="path3276"
         style="fill:#ffffff;fill-opacity:1;fill-rule:nonzero;stroke:none"
         d="m 0,0 0.592,-0.72 -1.33,-1.031 1.036,-1.412 1.38,0.961 0.518,-0.788 -3.495,-2.425 -0.515,0.785 1.403,0.975 L -1.42,-2.28 -2.77,-3.327 -3.363,-2.606 0,0 z" />
    </g>
    <g
       transform="matrix(15.652174,0,0,-15.652419,82.581522,-14.917512)"
       id="g3278">
      <path
         inkscape:connector-curvature="0"
         id="path3280"
         style="fill:#ffffff;fill-opacity:1;fill-rule:nonzero;stroke:none"
         d="M 0,0 0.749,0.556 1.715,-0.822 3.256,0.192 2.368,1.621 3.181,2.097 5.424,-1.518 4.61,-1.991 3.71,-0.539 2.21,-1.529 3.19,-2.928 2.441,-3.484 0,0 z" />
    </g>
    <g
       transform="matrix(15.652174,0,0,-15.652419,-75.095351,217.6555)"
       id="g3282">
      <path
         inkscape:connector-curvature="0"
         id="path3284"
         style="fill:#ffffff;fill-opacity:1;fill-rule:nonzero;stroke:none"
         d="M 0,0 0.258,0.895 1.862,0.383 2.436,2.036 0.863,2.63 1.22,3.502 5.199,1.996 4.841,1.126 3.245,1.73 2.683,0.12 4.309,-0.399 4.052,-1.295 0,0 z" />
    </g>
    <g
       transform="matrix(15.652174,0,0,-15.652419,735.37264,125.87132)"
       id="g3286">
      <path
         inkscape:connector-curvature="0"
         id="path3288"
         style="fill:#ffffff;fill-opacity:1;fill-rule:nonzero;stroke:none"
         d="M 0,0 0.425,-0.835 -3.37,-2.764 -3.793,-1.93 0,0 z" />
    </g>
    <g
       transform="matrix(15.652174,0,0,-15.652419,722.46899,248.06186)"
       id="g3290">
      <path
         inkscape:connector-curvature="0"
         id="path3292"
         style="fill:#ffffff;fill-opacity:1;fill-rule:nonzero;stroke:none"
         d="M 0,0 0.736,-0.452 C 0.477,-0.878 0.337,-1.303 0.406,-1.785 0.462,-2.164 0.646,-2.37 0.893,-2.334 l 0.012,0.002 c 0.236,0.033 0.334,0.196 0.413,0.925 0.092,0.881 0.248,1.464 1.083,1.585 L 2.414,0.18 C 3.178,0.292 3.773,-0.249 3.9,-1.111 3.988,-1.724 3.872,-2.275 3.591,-2.752 l -0.768,0.379 c 0.205,0.41 0.308,0.801 0.255,1.157 -0.053,0.354 -0.241,0.517 -0.445,0.486 L 2.62,-0.731 C 2.343,-0.772 2.281,-0.964 2.199,-1.721 2.1,-2.608 1.864,-3.134 1.13,-3.24 L 1.117,-3.242 C 0.282,-3.365 -0.282,-2.795 -0.413,-1.887 -0.507,-1.248 -0.379,-0.572 0,0" />
    </g>
    <g
       transform="matrix(15.652174,0,0,-15.652419,373.71978,528.259)"
       id="g3294">
      <path
         inkscape:connector-curvature="0"
         id="path3296"
         style="fill:#ffffff;fill-opacity:1;fill-rule:nonzero;stroke:none"
         d="m 0,0 c -0.406,-0.416 -0.97,-0.674 -1.595,-0.674 -0.628,0 -1.192,0.258 -1.597,0.674 -0.23,-0.323 -0.369,-0.714 -0.369,-1.139 0,-0.425 0.139,-0.815 0.369,-1.136 0.405,0.415 0.969,0.675 1.597,0.675 0.625,0 1.19,-0.26 1.596,-0.676 0.23,0.322 0.367,0.712 0.367,1.137 C 0.368,-0.713 0.231,-0.323 0,0" />
    </g>
    <g
       transform="matrix(15.652174,0,0,-15.652419,348.75143,530.38304)"
       id="g3298">
      <path
         inkscape:connector-curvature="0"
         id="path3300"
         style="fill:#ffffff;fill-opacity:1;fill-rule:nonzero;stroke:none"
         d="M 0,0 C 0.48,0.002 0.911,0.203 1.219,0.525 0.883,0.794 0.464,0.961 0,0.961 -0.464,0.961 -0.883,0.794 -1.22,0.525 -0.912,0.203 -0.481,0.002 0,0" />
    </g>
    <g
       transform="matrix(15.652174,0,0,-15.652419,348.75143,561.76611)"
       id="g3302">
      <path
         inkscape:connector-curvature="0"
         id="path3304"
         style="fill:#ffffff;fill-opacity:1;fill-rule:nonzero;stroke:none"
         d="m 0,0 c -0.482,-0.002 -0.913,-0.204 -1.22,-0.526 0.335,-0.269 0.756,-0.437 1.22,-0.437 0.464,0 0.883,0.168 1.219,0.437 C 0.912,-0.204 0.48,-0.002 0,0" />
    </g>
    <g
       transform="matrix(15.652174,0,0,-15.652419,207.21352,484.16768)"
       id="g3306">
      <path
         inkscape:connector-curvature="0"
         id="path3308"
         style="fill:#ffffff;fill-opacity:1;fill-rule:nonzero;stroke:none"
         d="m 0,0 2.903,0 c 0.373,0.373 0.744,0.751 1.109,1.124 l -2.918,0 C 0.718,0.745 0.351,0.368 0,0" />
    </g>
    <g
       transform="matrix(15.652174,0,0,-15.652419,233.45595,457.45989)"
       id="g3310">
      <path
         inkscape:connector-curvature="0"
         id="path3312"
         style="fill:#ffffff;fill-opacity:1;fill-rule:nonzero;stroke:none"
         d="m 0,0 2.901,0 c 0.374,0.388 0.736,0.766 1.076,1.122 l -2.832,0 C 0.766,0.755 0.383,0.38 0,0" />
    </g>
    <g
       transform="matrix(15.652174,0,0,-15.652419,196.90655,495.12285)"
       id="g3314">
      <path
         inkscape:connector-curvature="0"
         id="path3316"
         style="fill:#ffffff;fill-opacity:1;fill-rule:nonzero;stroke:none"
         d="m 0,0 c -0.293,-0.317 -0.467,-0.544 0.192,-1.204 0.658,-0.657 0.887,-0.484 1.204,-0.192 0.114,0.106 0.229,0.214 0.346,0.326 0.399,0.374 0.816,0.775 1.232,1.188 l -2.865,0 C 0.073,0.08 0.036,0.039 0,0" />
    </g>
    <g
       transform="matrix(15.652174,0,0,-15.652419,305.49195,429.55008)"
       id="g3318">
      <path
         inkscape:connector-curvature="0"
         id="path3320"
         style="fill:#ffffff;fill-opacity:1;fill-rule:nonzero;stroke:none"
         d="m 0,0 0.049,0.053 -0.001,0 c 0.1,0.104 0.106,0.117 0.2,0.221 0.105,0.112 0.16,0.183 0.16,0.261 L -0.818,1.759 C -0.895,1.762 -0.967,1.705 -1.079,1.601 -1.188,1.501 -1.208,1.488 -1.319,1.384 L -1.373,1.334 C -1.824,0.907 -2.328,0.43 -2.855,-0.078 l 2.783,0.001 C -0.049,-0.052 -0.024,-0.024 0,0" />
    </g>
    <g
       transform="matrix(15.652174,0,0,-15.652419,467.36517,506.68529)"
       id="g3322">
      <path
         inkscape:connector-curvature="0"
         id="path3324"
         style="fill:#ffffff;fill-opacity:1;fill-rule:nonzero;stroke:none"
         d="m 0,0 0,2.904 c -0.373,0.373 -0.75,0.745 -1.123,1.11 l 0,-2.918 C -0.744,0.721 -0.368,0.353 0,0" />
    </g>
    <g
       transform="matrix(15.652174,0,0,-15.652419,440.6516,480.39862)"
       id="g3326">
      <path
         inkscape:connector-curvature="0"
         id="path3328"
         style="fill:#ffffff;fill-opacity:1;fill-rule:nonzero;stroke:none"
         d="m 0,0 0,2.899 c -0.388,0.375 -0.765,0.736 -1.123,1.077 l 0,-2.832 C -0.755,0.766 -0.379,0.382 0,0" />
    </g>
    <g
       transform="matrix(15.652174,0,0,-15.652419,354.88395,389.07144)"
       id="g3330">
      <path
         inkscape:connector-curvature="0"
         id="path3332"
         style="fill:#ffffff;fill-opacity:1;fill-rule:nonzero;stroke:none"
         d="M 0,0 1.567,-1.604 2.714,-0.46 1.178,1.045 C 0.847,0.808 0.512,0.514 0.144,0.149 L 0,0 z" />
    </g>
    <g
       transform="matrix(15.652174,0,0,-15.652419,478.32169,516.96733)"
       id="g3334">
      <path
         inkscape:connector-curvature="0"
         id="path3336"
         style="fill:#ffffff;fill-opacity:1;fill-rule:nonzero;stroke:none"
         d="M 0,0 C 0.318,-0.293 0.544,-0.465 1.205,0.192 1.862,0.852 1.689,1.079 1.396,1.396 1.291,1.51 1.182,1.626 1.072,1.742 0.696,2.143 0.295,2.556 -0.117,2.975 l 0,-2.866 C -0.079,0.073 -0.038,0.037 0,0" />
    </g>
    <g
       transform="matrix(15.652174,0,0,-15.652419,412.74847,408.352)"
       id="g3338">
      <path
         inkscape:connector-curvature="0"
         id="path3340"
         style="fill:#ffffff;fill-opacity:1;fill-rule:nonzero;stroke:none"
         d="m 0,0 -0.053,0.047 c -0.104,0.098 -0.117,0.104 -0.219,0.2 -0.113,0.103 -0.186,0.16 -0.263,0.157 l -1.226,-1.223 c -0.001,-0.078 0.055,-0.15 0.16,-0.264 0.101,-0.107 0.112,-0.126 0.217,-0.237 l 0.05,-0.055 c 0.426,-0.452 0.905,-0.955 1.412,-1.48 l 0,2.78 C 0.052,-0.05 0.025,-0.024 0,0" />
    </g>
    <path
       inkscape:connector-curvature="0"
       id="path3342"
       style="fill:#ffffff;fill-opacity:1;fill-rule:nonzero;stroke:none"
       d="m 294.36325,288.56412 -19.06435,0 0,-19.06467 19.06435,0 0,19.06467 z m -23.11826,23.10299 -19.06435,0.0163 0,-19.06468 19.06435,0 0,19.04905 z m -42.1826,-19.04905 19.08,0 0,19.06467 -19.08,0 0,-19.06467 z m -23.10261,0 19.06435,0 0,19.06467 -19.06435,0 0,-19.06467 z m -23.10262,-23.11861 19.06435,0 0,19.06467 -19.06435,0 0,-19.06467 z m -23.69738,-23.11861 19.65912,0 0,19.08029 -19.65912,0 0,-19.08029 z m 0,-23.11862 19.65912,0 0,19.0803 -19.65912,0 0,-19.0803 z m 0,-23.9795 19.65912,0 0,19.95681 -19.65912,0 0,-19.95681 z m 23.69738,-24.40214 19.06435,0 0,20.33246 -19.06435,0 0,-20.33246 z m 42.18262,20.33246 -19.06435,0 0,-20.33246 19.06435,0 0,20.33246 z m 23.10261,0 -19.08,0 0,-20.33246 19.08,0 0,20.33246 z m 23.1026,24.01087 -19.06435,0 0,-19.95681 19.06435,0 0,19.95681 z m 23.11826,23.13424 -19.06435,0 0,-19.0803 19.06435,0 0,19.0803 z m -42.18261,4.02269 19.06435,0 0,19.08029 -19.06435,0 0,-19.08029 z m -23.11825,23.11861 19.08,0 0,19.06467 -19.08,0 0,-19.06467 z m -23.10261,0 19.06435,0 0,19.06467 -19.06435,0 0,-19.06467 z m 19.08,-50.27554 -19.06435,0 0,-19.95681 19.06435,0 0,19.95681 z m 23.10261,0 -19.08,0 0,-19.95681 19.08,0 0,19.95681 z m -19.08,4.03831 19.08,0 0,19.0803 -19.08,0 0,-19.0803 z m -23.08696,0 19.06435,0 0,19.09593 -19.08,0 0.0156,-19.09593 z m -0.0156,23.11862 19.06435,0 0,19.08029 -19.06435,0 0,-19.08029 z m 42.18261,19.08029 -19.08,0 0,-19.08029 19.08,0 0,19.08029 z m 23.1026,-23.10298 -19.06435,0 0,-19.0803 19.06435,0 0,19.0803 z m -88.38782,-43.07543 19.06435,0 0,19.95681 -19.06435,0 0,-19.95681 z m 0,23.9795 19.06435,0 0,19.0803 -19.06435,0 0,-19.0803 z m 0,23.11862 19.06435,0 0,19.08029 -19.06435,0 0,-19.08029 z m 88.38782,42.18328 -19.06435,0 0,-19.06467 19.06435,0 0,19.06467 z m 23.11827,-23.10299 -19.06435,0 0,-19.08029 19.06435,0 0,19.08029 z m 19.20521,4.03832 c 0.0939,-1.31477 0.0939,-2.69218 0.14087,-4.03832 l -15.30782,0 0,-19.08029 13.96174,0 c -0.26609,-1.33053 -0.54783,-2.67655 -0.87653,-4.02269 l -13.08521,0 0,-19.09593 6.66782,0 c -0.61043,-1.33052 -1.18956,-2.67654 -1.84695,-4.03831 l -4.82087,0 0,-8.59326 c -1.26783,-2.06604 -2.59826,-4.13219 -4.03826,-6.15135 l 0,14.74461 -19.06435,0 0,-19.94119 15.04173,0 c -1.08,-1.3774 -2.17565,-2.73916 -3.33391,-4.06968 l -11.70782,0 0,-11.66107 c -1.33044,-1.15827 -2.69218,-2.22265 -4.05392,-3.30267 l 0,14.96374 -19.06435,0 0,-20.33246 11.72349,0 c -2.11305,-1.40877 -4.2574,-2.78616 -6.43305,-4.05393 l -5.29044,0 0,-2.88005 c -1.33042,-0.6575 -2.69217,-1.25226 -4.03825,-1.87841 l 0,4.75846 -19.08,0 0,-11.30106 c -1.34608,-0.31313 -2.67652,-0.64176 -4.02261,-0.89226 l 0,12.19332 -19.06435,0 0,-13.66459 c -1.36174,0.0312 -2.70782,0.0476 -4.05391,0.1565 l 0,13.50809 -19.06435,0 0,-9.29764 c -1.36174,0.48525 -2.72348,0.93913 -4.03826,1.50264 l 0,7.795 -13.21044,0 c -1.61216,1.25215 -3.14608,2.64516 -4.66434,4.05393 l 17.87478,0 0,20.33246 -19.65913,0 0,-18.73593 c -1.44,1.45566 -2.75479,3.00529 -4.03826,4.5862 l 0,14.14973 -8.84348,0 c -0.59478,1.31476 -1.06435,2.69228 -1.58087,4.06968 l 10.42435,0 0,19.94119 -14.88521,0 c -0.10963,1.34602 -0.12523,2.70779 -0.15653,4.03831 l 15.04174,0 0,19.09593 -13.53913,0 c 0.26608,1.34614 0.59478,2.67654 0.93913,4.02269 l 12.6,0 0,19.08029 -6.04174,0 c 0.61044,1.34614 1.23653,2.7078 1.92521,4.03832 l 4.11653,0 0,7.37223 c 1.26782,2.09742 2.62956,4.14795 4.03826,6.18273 l 0,-13.55496 19.65913,0 0,19.06467 -15.46435,0 c 1.08,1.34602 2.17566,2.72354 3.31826,4.05394 l 12.14609,0 0,12.09931 c 1.31478,1.12702 2.67652,2.17567 4.03826,3.22443 l 0,-15.32374 19.06435,0 0,19.06467 -14.16521,0 c 2.03477,1.40865 4.06956,2.77042 6.1513,4.0227 l 8.01391,0 0,4.47657 c 1.34609,0.673 2.67652,1.25213 4.03826,1.87828 l 0,-6.35485 19.08,0 0,12.81932 c 1.34609,0.313 2.70783,0.626 4.02261,0.87651 l 0,-13.69583 19.08,0 0,15.10448 c 1.34608,-0.0625 2.70783,-0.0476 4.03825,-0.15651 l 0,-14.94797 19.06435,0 0,10.62791 c 1.36174,-0.48514 2.72348,-0.95477 4.05392,-1.51827 l 0,-9.10964 14.61913,0 c 1.5026,-1.23652 3.03652,-2.52005 4.44522,-3.9132 l 0,-0.12512 -19.06435,0 0,-19.04905 19.06435,0 0,19.04905 0.12521,0 c 0,-0.0162 0.047,-0.0312 0.047,-0.0312 1.4087,-1.40865 2.64521,-2.89568 3.86609,-4.39832 l 0,-14.61936 9.21912,0 c 0.57914,-1.33039 1.0487,-2.70791 1.54958,-4.05393 l -10.7687,0 0,-19.06468 15.16695,0 z" />
    <g
       transform="matrix(15.652174,0,0,-15.652419,317.48464,270.79859)"
       id="g3344">
      <path
         inkscape:connector-curvature="0"
         id="path3346"
         style="fill:#ffffff;fill-opacity:1;fill-rule:nonzero;stroke:none"
         d="m 0,0 c -0.066,-0.762 -0.311,-1.881 -1.248,-2.813 -0.938,-0.934 -2.051,-1.184 -2.813,-1.248 -2.018,-0.175 -3.737,0.401 -5.389,2.123 -2.86,2.98 -2.969,6.093 -0.864,8.191 2.104,2.097 5.21,1.994 8.19,-0.865 C -0.403,3.736 0.175,2.016 0,0 m 0.927,-1.708 c -0.015,0.383 -0.004,0.805 0.034,1.274 0.182,2.281 -0.293,4.452 -2.862,6.769 -3.56,3.208 -7.062,2.463 -9.01,0.515 -1.948,-1.948 -2.695,-5.451 0.513,-9.01 2.318,-2.571 4.488,-3.043 6.77,-2.863 0.469,0.037 0.891,0.051 1.275,0.033 1.086,-0.08 1.894,-0.287 2.694,-0.779 l 0.325,0.318 c 0.412,0.412 0.727,0.785 0.979,1.155 -0.447,0.767 -0.641,1.548 -0.718,2.588" />
    </g>
    <g
       transform="matrix(15.652174,0,0,-15.652419,442.63943,334.80597)"
       id="g3348">
      <path
         inkscape:connector-curvature="0"
         id="path3350"
         style="fill:#ffffff;fill-opacity:1;fill-rule:nonzero;stroke:none"
         d="m 0,0 c -0.761,0.067 -1.875,0.315 -2.812,1.249 -0.938,0.933 -1.184,2.052 -1.248,2.813 -0.175,2.017 0.402,3.735 2.124,5.389 2.979,2.859 6.084,2.962 8.19,0.864 C 8.359,8.218 8.249,5.105 5.389,2.125 3.737,0.404 2.018,-0.174 0,0 M 6.337,1.902 C 9.545,5.462 8.799,8.964 6.851,10.913 4.903,12.859 1.4,13.605 -2.158,10.399 -4.729,8.08 -5.202,5.909 -5.021,3.628 -4.984,3.159 -4.972,2.738 -4.987,2.353 -5.114,0.631 -5.55,-0.384 -6.959,-1.791 l -2.174,-2.126 1.153,-1.154 2.126,2.173 c 1.401,1.4 2.424,1.846 4.147,1.971 0.383,0.016 0.805,0.003 1.275,-0.033 2.282,-0.181 4.451,0.292 6.769,2.862" />
    </g>
    <path
       inkscape:connector-curvature="0"
       id="path3352"
       style="fill:#ffffff;fill-opacity:1;fill-rule:nonzero;stroke:none"
       d="m 517.75108,223.70048 19.65913,0 0,19.06467 -19.65913,0 0,-19.06467 z m 19.64347,42.18328 -19.65912,0 0,-19.08029 19.65912,0 0,19.08029 z m -23.68174,23.08725 -19.04868,0 0,-19.06456 19.04868,0 0,19.06456 z m -23.11826,23.11861 -19.06434,0 0,-19.04894 19.06434,0 0,19.04894 z m -42.16695,-19.04894 19.08,0 0,19.04894 -19.08,0 0,-19.04894 z m -23.11826,0 19.09565,0 0,19.04894 -19.09565,0 0,-19.04894 z m -23.11826,-23.1186 19.06435,0 0,19.06467 -19.06435,0 0,-19.06467 z m 0,-23.11861 19.06435,0 0,19.08029 -19.06435,0 0,-19.08029 z m 0,-23.10299 19.06435,0 0.0156,19.0803 -19.08,0 0,-19.0803 z m 23.11826,-24.01087 19.09565,0 0,19.95693 -19.09565,0 0,-19.95693 z m 23.11826,-24.40214 19.08,0 0,20.3482 -19.08,0 0,-20.3482 z m 42.16695,0.0163 0,20.33245 -19.06434,0 0,-20.3482 19.06434,0.0162 z m 23.11826,20.33245 -19.04868,0 0,-20.33245 19.04868,0 0,20.33245 z m -19.04868,4.05394 19.04868,0 0,19.95693 -19.04868,0 0,-19.95693 z m -23.13392,47.11386 19.06434,0 0,19.08029 -19.06434,0 0,-19.08029 z m -23.10261,23.11861 19.08,0 0,19.06467 -19.08,0 0,-19.06467 z m 19.06435,-4.03832 -19.08,0 0,-19.08029 19.08,0 0,19.08029 z m 0,-42.18328 0,19.06467 -19.06435,0.0163 0,-19.0803 19.06435,0 z m 23.1026,19.06467 -19.06434,0 0,-19.06467 19.06434,0 0,19.06467 z m 0,-23.11861 -19.06434,0 0,-19.95693 19.06434,0 0,19.95693 z m -42.16695,-19.95693 19.08,0 0,19.95693 -19.08,0 0,-19.95693 z m -23.11826,24.01087 19.09565,0 0,19.0803 -19.09565,0 0,-19.0803 z m 0,23.10299 19.09565,0 0,19.08029 -19.09565,0 0,-19.08029 z m 0,23.11861 19.09565,0 0,19.06467 -19.09565,0 0,-19.06467 z m 65.28521,19.04893 -19.06434,0 0,-19.06456 19.06434,0 0,19.06456 z m 23.11826,-23.08725 -19.04868,0 0,-19.08029 19.04868,0 0,19.08029 z m 0,-23.11861 -19.04868,0 0,-19.06467 19.04868,0 0,19.06467 z m 23.68174,-23.11861 -19.65912,0 0,-19.95693 19.65912,0 0,19.95693 z m 4.05391,4.05394 15.04175,0 c -0.0312,-1.34615 -0.0312,-2.70792 -0.15652,-4.05394 l -14.88523,0 0,-19.95693 10.42435,0 c -0.51651,-1.36178 -1.00173,-2.73918 -1.59651,-4.05394 l -8.82784,0 0,-14.16549 c -1.28347,-1.54951 -2.5826,-3.11479 -4.05391,-4.57043 l 0,18.73592 -19.64347,0 0,-20.33245 17.87478,0 c -1.51826,-1.40877 -3.05217,-2.81742 -4.68,-4.03831 l -13.19478,0 0,-7.79501 c -1.29913,-0.57912 -2.67653,-1.03301 -4.03827,-1.53389 l 0,9.3289 -19.04868,0 0,-13.52371 c -1.34609,-0.12526 -2.70783,-0.12526 -4.06958,-0.15651 l 0,13.68022 -19.06434,0 0,-12.22457 c -1.33043,0.25039 -2.69217,0.57914 -4.03826,0.89214 l 0,11.33243 -19.06435,0 0,-4.78971 c -1.36174,0.61051 -2.70782,1.23653 -4.03826,1.90966 l 0,2.88005 -5.30609,0 c -2.16,1.25214 -4.2887,2.61391 -6.41739,4.02256 l 11.72348,0 0,20.3482 -19.08,0 0,-14.94811 c -1.34609,1.06438 -2.72348,2.11315 -4.05391,3.2558 l 0,11.69231 -11.69218,0 c -1.14261,1.31476 -2.25391,2.69216 -3.33391,4.05394 l 15.02609,0 0,19.95693 -19.06435,0 0,-14.7446 c -1.44,2.01915 -2.75478,4.10093 -4.03827,6.16697 l 0,8.57763 -4.80521,0 c -0.67305,1.34602 -1.25217,2.69217 -1.84696,4.05394 l 6.65217,0 0,19.0803 -13.08521,0 c -0.31305,1.33039 -0.59479,2.67654 -0.84521,4.02269 l 13.93042,0 0,19.08029 -15.29217,0 c 0.047,1.36177 0.0312,2.69217 0.15652,4.03832 l 15.13565,0 0,19.04893 -10.76868,0 c 0.51651,1.36176 0.97042,2.73916 1.56521,4.06967 l 9.20347,0 0,14.61937 c 1.23653,1.50264 2.47305,2.98955 3.88174,4.38268 0,0.0312 0.0312,0.0312 0.047,0.0462 l 0.1095,0 0,-19.04893 19.08,0 0,19.04893 -19.08,0 0,0.12525 c 1.42435,1.39315 2.95826,2.67654 4.47653,3.92881 l 14.60347,0 0,9.09403 c 1.31479,0.57913 2.69218,1.01738 4.03826,1.51827 l 0,-10.6123 19.08,0 0,14.93236 c 1.31479,0.11 2.67653,0.11 4.03827,0.14088 l 0,-15.07324 19.06435,0 0,13.68022 c 1.34608,-0.26613 2.70782,-0.57913 4.03826,-0.87652 l 0,-12.8037 19.06434,0 0,6.3236 c 1.36175,-0.61051 2.72348,-1.20527 4.06957,-1.87828 l 0,-4.44532 7.99826,0 c 2.06608,-1.25227 4.13217,-2.61404 6.1513,-4.05406 l -14.14956,0 0,-19.04893 19.04869,0 0,15.33937 c 1.36174,-1.08002 2.72349,-2.11303 4.03826,-3.25567 l 0,-12.0837 12.14609,0 c 1.15826,-1.34615 2.23826,-2.69216 3.31826,-4.06968 l -15.46435,0 0,-19.04892 19.64348,0 0,13.57058 c 1.44,-2.05041 2.80175,-4.10093 4.06957,-6.18272 l 0,-7.38786 4.10086,0 c 0.67305,-1.34616 1.29914,-2.67654 1.92523,-4.03832 l -6.02609,0 -0.0156,-19.08029 12.61566,0 c 0.32869,-1.34615 0.67304,-2.6923 0.92347,-4.03832 l -13.53913,0 0,-19.06468 z" />
  </g>
</svg>
